<svg width="10" height="10" viewBox="0 0 10 10" fill="none" xmlns="http://www.w3.org/2000/svg">
<path d="M5.0258 10C3.62271 10 2.43433 9.51572 1.46066 8.54717C0.486888 7.57861 0 6.39656 0 5.001C0 3.60544 0.486888 2.42306 1.46066 1.45383C2.43433 0.484611 3.62271 0 5.0258 0C5.80926 0 6.55068 0.173278 7.25005 0.519833C7.94931 0.8665 8.5309 1.35561 8.99484 1.98717V0H10V4.07683H5.90213V3.077H8.54905C8.19591 2.43333 7.70617 1.92628 7.07984 1.55583C6.45363 1.18528 5.76895 1 5.0258 1C3.90895 1 2.95964 1.38889 2.17785 2.16667C1.39606 2.94444 1.00516 3.88889 1.00516 5C1.00516 6.11111 1.39606 7.05556 2.17785 7.83333C2.95964 8.61111 3.90895 9 5.0258 9C5.88577 9 6.66198 8.75556 7.35442 8.26667C8.04686 7.77778 8.53269 7.13333 8.8119 6.33333H9.87117C9.56705 7.42133 8.96804 8.30445 8.07411 8.98267C7.18019 9.66089 6.16409 10 5.0258 10Z" fill="#4B5565"/>
</svg>
