<svg width="19" height="20" viewBox="0 0 19 20" fill="none" xmlns="http://www.w3.org/2000/svg">
<path d="M1.48497 6.3862H15.3447V3.90052C15.3447 3.82396 15.313 3.75387 15.2495 3.69023C15.1861 3.62644 15.1163 3.59454 15.0401 3.59454H1.78964C1.71341 3.59454 1.64362 3.62644 1.58026 3.69023C1.51674 3.75387 1.48497 3.82396 1.48497 3.90052V6.3862ZM1.78964 19.0057C1.28954 19.0057 0.866235 18.8317 0.519741 18.4837C0.173247 18.1357 0 17.7106 0 17.2083V3.90052C0 3.39825 0.173247 2.97312 0.519741 2.62512C0.866235 2.27713 1.28954 2.10313 1.78964 2.10313H3.16027V0H4.68336V2.10313H12.1845V0H13.6694V2.10313H15.0401C15.5402 2.10313 15.9635 2.27713 16.31 2.62512C16.6565 2.97312 16.8297 3.39825 16.8297 3.90052V9.33272C16.5923 9.22816 16.3498 9.14364 16.1023 9.07918C15.8548 9.01488 15.6023 8.96426 15.3447 8.92731V7.87761H1.48497V17.2083C1.48497 17.2849 1.51674 17.355 1.58026 17.4186C1.64362 17.4824 1.71341 17.5143 1.78964 17.5143H8.22651C8.31017 17.7896 8.41139 18.0499 8.53019 18.2953C8.64882 18.5407 8.78362 18.7775 8.9346 19.0057H1.78964ZM11.3905 18.694C10.5236 17.8234 10.0902 16.7673 10.0902 15.5258C10.0902 14.2843 10.5236 13.2282 11.3905 12.3575C12.2574 11.4869 13.3089 11.0516 14.5451 11.0516C15.7814 11.0516 16.8329 11.4869 17.6997 12.3575C18.5666 13.2282 19 14.2843 19 15.5258C19 16.7673 18.5666 17.8234 17.6997 18.694C16.8329 19.5647 15.7814 20 14.5451 20C13.3089 20 12.2574 19.5647 11.3905 18.694ZM16.1939 17.8012L16.8107 17.1817L14.9831 15.3461V12.6004H14.1073V15.7055L16.1939 17.8012Z" fill="#4B5565"/>
</svg>
